<?xml version="1.0" encoding="utf-8"?>
<!-- Generator: Adobe Illustrator 25.4.1, SVG Export Plug-In . SVG Version: 6.00 Build 0)  -->
<svg version="1.1" id="Layer_1" xmlns="http://www.w3.org/2000/svg" xmlns:xlink="http://www.w3.org/1999/xlink" x="0px" y="0px"
	 viewBox="0 0 338.7 174" style="enable-background:new 0 0 338.7 174;" xml:space="preserve">
<style type="text/css">
	.st0{fill:#F09EC4;}
	.st1{enable-background:new    ;}
</style>
<desc>Created with Sketch.</desc>
<g id="Page-1">
	<g id="Group">
		<g id="logo_pink">
			<path id="Shape" class="st0" d="M18.9,75.6h-3.6v10.5H11v3.4h4.4v33.4c0,3.1,1.2,4.9,6.1,4.9c1.2,0,2.5-0.1,3.7-0.2v-3.2
				c-0.9,0.1-2.3,0.2-3.2,0.2c-3,0-3-1.7-3-3.9v-31h6.2v-3.4h-6.3C18.9,86.3,18.9,75.6,18.9,75.6z"/>
			<path id="Shape_00000129926149110247630940000015948429244125595271_" class="st0" d="M46.3,87.4c-1.3-1-3.2-1.6-5.2-1.6
				c-4.2,0-6.2,2.4-7.5,3.7v-20h-3.5v58.1h3.5V94.7c0.3-1.2,0.7-2.4,1.9-3.6c1.3-1.2,3-1.9,4.7-1.9c5.4,0,5.4,5,5.4,7.7v30.7h3.5
				V94.8C49.2,93,49.2,89.7,46.3,87.4z"/>
			<path id="Shape_00000034050624957188228300000000341813428900010125_" class="st0" d="M75.5,117.9v-4.6H72c0,5.9,0,6.3-0.6,7.7
				c-1.2,3.5-4.4,3.5-5.3,3.5c-3.4,0-6.1-1.6-6.1-7v-10.2h15.5V99c0-5.1,0-13-9.6-13c-5.9,0-9.3,3.6-9.3,9.9v21.6
				c0,3.5,0.6,5.8,2.9,7.8c2.1,2,4.5,2.3,6.5,2.3C72,127.7,75.5,124.1,75.5,117.9z M60,97.1c0-2,0-8,6-8c5.9,0,5.9,6.3,5.9,7.6v7.6
				H60V97.1z"/>
			<path id="Shape_00000039813035796382945130000008402328594282904470_" class="st0" d="M96.7,124.2c0.8,1.2,2.6,3.6,6.7,3.6
				c4.9,0,8.7-3.8,8.7-9.9V96.8c0-3,0-11-8.1-11c-4.4,0-6.3,2.5-7.6,4V69.5h-3.5v58h3.6v-3.3H96.7z M96.6,96.5
				c0-5.4,3.4-7.5,6.6-7.5c4,0,5.5,3.2,5.5,7.6v20.1c0,1.6,0,4.6-2.1,6.6c-0.9,0.9-2.1,1.4-3.5,1.4c-2.8,0-6.6-2.5-6.6-8.3
				L96.6,96.5L96.6,96.5z"/>
			
				<rect id="Rectangle-path_00000080173061590762573100000003614637624221814430_" x="120.3" y="75" class="st0" width="3.5" height="6.4"/>
			
				<rect id="Rectangle-path_00000125569781312739173510000013035480533901026189_" x="120.3" y="86.2" class="st0" width="3.5" height="41.4"/>
			<path id="Shape_00000023269175844803938460000007099012197015508137_" class="st0" d="M144.5,85.2c-5.9,3-7.5,5.8-8.6,8.3v-7.2
				h-3.4v41.4h3.5V98.4c2.9-6.7,5.3-7.6,8.6-8.6v-4.6C144.6,85.2,144.5,85.2,144.5,85.2z"/>
			<path id="Shape_00000079457731160681965940000010823640636592220085_" class="st0" d="M168.3,127.6v-58h-3.5v20.6
				c-1.2-1.6-3-3.9-7.3-3.9c-2.5,0-8.3,1.1-8.3,10.5v20.7c0,2,0,10.4,8.2,10.4c4.6,0,6.7-3,7.6-4.7v4.4
				C165,127.6,168.3,127.6,168.3,127.6z M164.8,118.8c0,1.1-1.7,6-6.5,6c-5.7,0-5.7-6-5.7-8v-20c0-6.9,4.6-7.2,5.8-7.2
				c5.3,0,6.4,6.2,6.4,7.3V118.8z"/>
			<path id="Shape_00000054259258163838058830000014850987520641718930_" class="st0" d="M214.8,96.8c0-3,0-11-8.1-11
				c-4.4,0-6.3,2.5-7.6,4V69.5h-3.4v58h3.6v-3.4c0.8,1.2,2.6,3.6,6.7,3.6c4.9,0,8.7-3.8,8.7-9.9v-21
				C214.7,96.8,214.8,96.8,214.8,96.8z M211.4,116.7c0,1.6,0,4.6-2.1,6.6c-0.9,0.9-2.1,1.4-3.5,1.4c-2.8,0-6.6-2.5-6.6-8.3V96.5
				c0-5.4,3.4-7.5,6.6-7.5c4,0,5.5,3.2,5.5,7.6v20.1H211.4z"/>
			<path id="Shape_00000009550306035282131230000000267296390664511903_" class="st0" d="M237.2,124.4c0.7,2.7,2.3,3.2,5.9,3.2v-3.3
				c-1.2,0-2.5-0.1-2.5-1.5V95c0-2.5,0-9-8.4-9c-9.5,0-9.5,6.7-9.5,13h3.5c0-5.5,0-9.7,5.5-9.7c4.9,0,5.3,3,5.3,6.7v4.8
				c-2.1,1.6-2.7,1.9-6.9,4.1c-4.3,2.2-9.1,5.1-9.1,13c0,5.1,2.3,9.7,8.1,9.7C233.1,127.6,235.4,125.8,237.2,124.4z M224.7,118
				c0-6.1,3.5-8.1,7.6-10.4c3.3-1.8,3.6-2,4.9-2.9v15.7c-1.6,1.8-3.6,3.9-7.2,3.9C226.1,124.3,224.7,121.3,224.7,118z"/>
			<polygon id="Shape_00000075865338878045369270000003208383647814275200_" class="st0" points="269.2,127.6 258.6,102 268.2,86.2 
				264.2,86.2 252.3,105.6 252.3,69.5 248.8,69.5 248.8,127.6 252.4,127.6 252.4,112.2 256.3,105.7 265.4,127.6 			"/>
			<path id="Shape_00000152978410378317534960000001264323405945485211_" class="st0" d="M283.1,86c-5.9,0-9.3,3.6-9.3,9.9v21.6
				c0,3.5,0.6,5.8,2.9,7.8c2.1,2,4.5,2.3,6.5,2.3c6.1,0,9.5-3.5,9.5-9.8v-4.6h-3.5c0,5.9,0,6.3-0.6,7.7c-1.2,3.5-4.4,3.5-5.3,3.5
				c-3.4,0-6.1-1.6-6.1-7v-10.2h15.5V99C292.7,93.9,292.7,86,283.1,86z M289.2,104.4h-11.9v-7.3c0-2,0-8,6-8c5.9,0,5.9,6.3,5.9,7.6
				V104.4z"/>
			<path id="Shape_00000114052145352331502350000000577310991689896887_" class="st0" d="M303.8,93.5v-7.2h-3.4v41.4h3.5V98.4
				c2.9-6.7,5.3-7.6,8.6-8.6v-4.7C306.5,88.1,304.9,91,303.8,93.5z"/>
			<path id="Shape_00000164480087619361182090000000908168998202646148_" class="st0" d="M334.2,86.2l-7.3,34.4l-7.2-34.4h-3.5
				l9,41.1l-1,4.8c-0.2,1.2-1.2,5.7-6.7,5.7c-0.7,0-1.2-0.1-1.8-0.2v3.5c5.3,0,9.7-0.4,11.7-8.8l10.6-46L334.2,86.2L334.2,86.2
				L334.2,86.2z"/>
			<polygon id="Shape_00000032633613059382305090000000574902972619469727_" class="st0" points="190.1,82.5 180.3,64.3 179.5,63 
				178.9,61.9 178.6,60.7 178.2,59.6 177.8,58.6 177.5,57.5 177.3,56.3 176.9,54.6 176.8,52.9 176.8,52.1 176.4,51 176.2,50.3 
				175.9,49.5 175.5,48.7 175.1,47.9 178.3,46.5 179.7,45.3 182.2,44.7 183.8,43.2 186.5,41.8 187.4,40.8 188.4,39 195.6,36.9 
				197,35.5 200,34.3 201.4,33.3 202.8,32.9 204.6,32.2 206,31.6 207.5,30.8 208.5,30.3 210,29.7 211.8,28.9 213,28.2 214.1,27.6 
				215.3,26.8 216.2,26.1 217.1,25.3 218,24.7 219.1,24 221,22.1 220.8,21.7 219.1,22.5 218,23.1 216.4,23.5 214.9,24 213.5,24.4 
				211.7,24.8 210.3,25.3 209.2,25.5 208.1,25.6 206.6,25.7 205.4,25.9 204.3,25.9 203,26 201.4,26 199,26.2 197.2,26.2 195.1,26.4 
				193,26.5 191.4,26.6 190.1,26.7 189.1,26.7 188,26.8 186.8,26.8 185.8,26.9 184.7,26.9 183.4,27 182.6,26.9 182.2,26.8 
				181.3,26.5 180.5,26.3 179.5,26.1 177.8,26 176.4,25.9 175.5,25.9 174.6,25.7 173.5,25.4 172.6,25.2 171.7,25.1 170.6,25.2 
				169.5,25.3 168.3,25.3 167.3,25.5 166.1,25.6 165.1,25.8 164.1,25.9 163.1,26.1 162,26.3 160.9,26.1 160,25.7 159.3,25.2 
				158.6,24.6 157.9,24 157.3,23.3 156.4,22.2 155.8,21.5 155.2,20.7 154.9,20.1 154.8,19 154.5,17.9 154.1,16.5 153.6,15.4 
				152.9,14.4 152.4,12.8 152,11.8 151.5,10.8 150.7,9.6 150.3,8.9 149.7,7.9 148.9,7.3 147.7,6.7 146.4,6.4 144.4,6 142.7,6 
				141.2,6.1 139.5,6.4 137.8,6.7 136.5,7 135.7,7.3 134.6,7.6 133.9,7.7 117.9,4 117.8,4.4 132,10.5 133.3,11.7 133.4,12 134,13.2 
				134.3,14.2 134.7,15.2 135.1,16.3 135.6,17.6 136,18.8 136.5,20.1 136.8,21.4 137.3,22.8 137.9,24.2 138.1,25.5 138.4,26.7 
				138.8,28.1 139.3,29.4 139.6,30.6 139.9,32.2 140.3,33.4 140.5,34.8 140.8,36.3 141.1,38.1 141.4,39.8 141.7,41.1 142.4,42.9 
				143,44.1 143.7,45.4 144.5,46.9 145.4,48 146.7,49.4 147.7,50.5 148.9,51.9 150.1,53 151.1,54 152.4,55.1 153.4,56.3 154.9,57.9 
				155.7,58.8 156.9,60.3 160,61.7 162.2,61.7 164.1,63.3 166.8,64.4 170.7,67.9 170.7,67.9 172.9,69 175.2,70.6 179.3,76.1 
				183.3,82.4 183.3,82.5 187.1,84.4 189.2,84 			"/>
		</g>
	</g>
</g>
<g class="st1">
	<path class="st0" d="M86.2,164.8c-1.5,0-2.7-0.4-3.6-1.3c-0.9-0.8-1.3-2-1.3-3.5v-0.6h2v0.7c0,1,0.2,1.7,0.7,2.2s1.2,0.7,2.1,0.7
		s1.5-0.2,2-0.7s0.7-1.2,0.7-2.1s-0.3-1.6-1-2.2c-0.6-0.5-1.3-1-2.2-1.4c-1.3-0.7-2.2-1.2-2.8-1.8c-0.9-0.8-1.3-1.9-1.3-3.4
		c0-1.4,0.4-2.5,1.2-3.3c0.8-0.8,1.9-1.2,3.3-1.2s2.5,0.4,3.3,1.3c0.8,0.8,1.2,2,1.2,3.4v0.3h-1.9v-0.4c0-0.9-0.2-1.6-0.7-2.1
		s-1.1-0.7-1.9-0.7s-1.4,0.2-1.9,0.7s-0.7,1.1-0.7,1.9c0,0.9,0.3,1.7,1,2.2c0.4,0.3,1.2,0.8,2.2,1.3c1.2,0.6,2.2,1.2,2.7,1.8
		c0.9,0.8,1.4,1.9,1.4,3.4c0,1.4-0.4,2.6-1.2,3.4C88.9,164.4,87.7,164.8,86.2,164.8z"/>
	<path class="st0" d="M97.7,164.4h-2.6l-3.2-17.2H94l2.7,14.2l2.6-14.2h2.3l2.6,14.2l2.6-14.2h1.9l-3.2,17.2H103l-2.6-13.3
		L97.7,164.4z"/>
	<path class="st0" d="M115,146.9c1.6,0,2.8,0.5,3.7,1.4c0.9,1,1.3,2.3,1.3,4.1v3.6h-7.9v3.4c0,2.3,1,3.5,2.9,3.5c2,0,3-1.2,3-3.5
		V159h2v0.3c0,1.8-0.4,3.2-1.3,4.1c-0.9,0.9-2.1,1.4-3.7,1.4s-2.9-0.5-3.7-1.4c-0.8-0.9-1.3-2.3-1.3-4.1v-6.8c0-1.8,0.4-3.2,1.3-4.1
		C112.2,147.4,113.4,146.9,115,146.9z M112.1,152.3v2.1h5.8v-2.1c0-2.3-1-3.5-3-3.5C113.1,148.8,112.1,150,112.1,152.3z"/>
	<path class="st0" d="M127,146.9c1.6,0,2.8,0.5,3.7,1.4c0.9,1,1.3,2.3,1.3,4.1v3.6h-7.9v3.4c0,2.3,1,3.5,2.9,3.5c2,0,3-1.2,3-3.5
		V159h2v0.3c0,1.8-0.4,3.2-1.3,4.1c-0.9,0.9-2.1,1.4-3.7,1.4c-1.6,0-2.9-0.5-3.7-1.4c-0.8-0.9-1.3-2.3-1.3-4.1v-6.8
		c0-1.8,0.4-3.2,1.3-4.1C124.1,147.4,125.4,146.9,127,146.9z M124.1,152.3v2.1h5.8v-2.1c0-2.3-1-3.5-3-3.5
		C125.1,148.8,124.1,150,124.1,152.3z"/>
	<path class="st0" d="M140.8,147.3v1.8h-3.4v11.7c0,0.8,0.1,1.3,0.4,1.6s0.7,0.5,1.4,0.5c0.5,0,1.1-0.1,1.5-0.3v1.8
		c-0.5,0.2-1.1,0.3-1.9,0.3c-2.4,0-3.5-1.3-3.5-3.8V149h-2.2v-1.8h2.3l0.2-5.1h1.8v5.1L140.8,147.3L140.8,147.3z"/>
	<path class="st0" d="M153.9,147.3v1.8h-3.4v11.7c0,0.8,0.1,1.3,0.4,1.6c0.3,0.3,0.7,0.5,1.4,0.5c0.5,0,1.1-0.1,1.5-0.3v1.8
		c-0.5,0.2-1.1,0.3-1.9,0.3c-2.4,0-3.5-1.3-3.5-3.8V149h-2.2v-1.8h2.3l0.2-5.1h1.8v5.1L153.9,147.3L153.9,147.3z"/>
	<path class="st0" d="M155.3,159.3v-6.8c0-1.8,0.4-3.1,1.3-4.1c0.8-1,2.1-1.4,3.7-1.4c1.6,0,2.8,0.5,3.7,1.4c0.8,1,1.3,2.3,1.3,4.1
		v6.8c0,1.8-0.4,3.1-1.3,4.1c-0.8,1-2.1,1.4-3.7,1.4c-1.6,0-2.8-0.5-3.7-1.4C155.7,162.4,155.3,161,155.3,159.3z M163.1,159.5v-7.2
		c0-2.3-1-3.5-2.9-3.5s-2.9,1.2-2.9,3.5v7.2c0,2.3,1,3.5,2.9,3.5S163.1,161.8,163.1,159.5z"/>
	<path class="st0" d="M167.3,159.3v-6.8c0-1.8,0.4-3.1,1.3-4.1c0.8-1,2.1-1.4,3.7-1.4c1.6,0,2.8,0.5,3.7,1.4c0.8,1,1.3,2.3,1.3,4.1
		v6.8c0,1.8-0.4,3.1-1.3,4.1c-0.8,1-2.1,1.4-3.7,1.4c-1.6,0-2.8-0.5-3.7-1.4C167.7,162.4,167.3,161,167.3,159.3z M175.1,159.5v-7.2
		c0-2.3-1-3.5-2.9-3.5s-2.9,1.2-2.9,3.5v7.2c0,2.3,1,3.5,2.9,3.5S175.1,161.8,175.1,159.5z"/>
	<path class="st0" d="M186.1,147.3v1.8h-3.4v11.7c0,0.8,0.1,1.3,0.4,1.6c0.3,0.3,0.7,0.5,1.4,0.5c0.5,0,1.1-0.1,1.5-0.3v1.8
		c-0.5,0.2-1.1,0.3-1.9,0.3c-2.4,0-3.5-1.3-3.5-3.8V149h-2.2v-1.8h2.3l0.2-5.1h1.8v5.1L186.1,147.3L186.1,147.3z"/>
	<path class="st0" d="M193.6,146.9c2.7,0,4,1.6,4,4.9v12.6h-2.1v-12.3c0-2.2-0.8-3.4-2.5-3.4c-1,0-1.7,0.4-2.3,1.2s-0.9,1.8-0.9,3.2
		v11.3h-2.1v-24h2.1v8.7C190.7,147.7,191.9,146.9,193.6,146.9z"/>
	<path class="st0" d="M209.3,164.8c-1.5,0-2.7-0.4-3.6-1.3c-0.9-0.8-1.3-2-1.3-3.5v-0.6h2v0.7c0,1,0.2,1.7,0.7,2.2s1.2,0.7,2.1,0.7
		c0.9,0,1.5-0.2,2-0.7s0.7-1.2,0.7-2.1s-0.3-1.6-1-2.2c-0.6-0.5-1.3-1-2.2-1.4c-1.3-0.7-2.2-1.2-2.8-1.8c-0.9-0.8-1.3-1.9-1.3-3.4
		c0-1.4,0.4-2.5,1.2-3.3s1.9-1.2,3.3-1.2c1.4,0,2.5,0.4,3.3,1.3c0.8,0.8,1.2,2,1.2,3.4v0.3h-1.9v-0.4c0-0.9-0.2-1.6-0.7-2.1
		s-1.1-0.7-1.9-0.7c-0.8,0-1.4,0.2-1.9,0.7s-0.7,1.1-0.7,1.9c0,0.9,0.3,1.7,1,2.2c0.4,0.3,1.2,0.8,2.2,1.3c1.2,0.6,2.2,1.2,2.7,1.8
		c0.9,0.8,1.4,1.9,1.4,3.4c0,1.4-0.4,2.6-1.2,3.4C211.9,164.4,210.8,164.8,209.3,164.8z"/>
	<path class="st0" d="M218.1,144.7H216v-3.6h2.1V144.7z M218.1,164.4H216v-17.2h2.1V164.4z"/>
	<path class="st0" d="M226.7,146.9c2.7,0,4,1.6,4,4.9v12.6h-2.1v-12.3c0-2.2-0.8-3.4-2.5-3.4c-1,0-1.7,0.4-2.3,1.2s-0.9,1.8-0.9,3.2
		v11.3h-2.1v-17.2h1.8v2.4C223.5,147.8,224.8,146.9,226.7,146.9z"/>
	<path class="st0" d="M237.9,164.8c-1.6,0-2.8-0.5-3.7-1.4c-0.8-0.9-1.3-2.3-1.3-4v-6.9c0-1.8,0.4-3.1,1.3-4
		c0.8-0.9,2.1-1.4,3.7-1.4c1.6,0,2.7,0.5,3.6,1.4c0.8,0.9,1.2,2.3,1.2,4v0.6h-2v-0.8c0-2.3-0.9-3.4-2.8-3.4c-1.9,0-2.8,1.1-2.8,3.4
		v7.3c0,2.3,0.9,3.4,2.8,3.4c1.9,0,2.8-1.1,2.8-3.4v-1.2h2v1c0,1.8-0.4,3.1-1.2,4C240.6,164.3,239.4,164.8,237.9,164.8z"/>
	<path class="st0" d="M249.5,146.9c1.6,0,2.8,0.5,3.7,1.4c0.9,1,1.3,2.3,1.3,4.1v3.6h-7.9v3.4c0,2.3,1,3.5,2.9,3.5c2,0,3-1.2,3-3.5
		V159h2v0.3c0,1.8-0.4,3.2-1.3,4.1c-0.9,0.9-2.1,1.4-3.7,1.4c-1.6,0-2.9-0.5-3.7-1.4s-1.3-2.3-1.3-4.1v-6.8c0-1.8,0.4-3.2,1.3-4.1
		C246.7,147.4,247.9,146.9,249.5,146.9z M246.6,152.3v2.1h5.8v-2.1c0-2.3-1-3.5-3-3.5C247.6,148.8,246.6,150,246.6,152.3z"/>
	<path class="st0" d="M267.3,164.4h-2.1v-20.3c-0.9,0.7-2.3,1.1-4.2,1.2v-1.6c1.3-0.1,2.3-0.4,3.1-0.9c0.8-0.5,1.3-1.3,1.7-2.4h1.5
		V164.4z"/>
	<path class="st0" d="M275.1,164.8c-1.7,0-3.1-0.5-4-1.5s-1.4-2.5-1.4-4.4v-0.4h2v0.5c0,2.5,1.1,3.8,3.2,3.8c2.2,0,3.3-1.4,3.3-4.1
		v-5.8c-0.8,1.7-2.2,2.5-4.2,2.5c-3,0-4.5-1.9-4.5-5.6v-3.9c0-1.9,0.5-3.4,1.4-4.4s2.3-1.5,4-1.5c1.8,0,3.1,0.5,4,1.5
		s1.4,2.5,1.4,4.4v12.9C280.5,162.8,278.7,164.8,275.1,164.8z M274.9,153.5c1.1,0,1.9-0.4,2.5-1.1c0.6-0.8,0.9-1.8,0.9-3v-3.6
		c0-2.5-1.1-3.8-3.3-3.8s-3.3,1.3-3.3,3.8v3.9C271.8,152.2,272.8,153.5,274.9,153.5z"/>
	<path class="st0" d="M287.8,164.8c-1.7,0-3.1-0.5-4-1.5s-1.4-2.5-1.4-4.4v-0.4h2v0.5c0,2.5,1.1,3.8,3.2,3.8c2.2,0,3.3-1.4,3.3-4.1
		v-5.8c-0.8,1.7-2.2,2.5-4.2,2.5c-3,0-4.5-1.9-4.5-5.6v-3.9c0-1.9,0.5-3.4,1.4-4.4s2.3-1.5,4-1.5c1.8,0,3.1,0.5,4,1.5
		s1.4,2.5,1.4,4.4v12.9C293.2,162.8,291.4,164.8,287.8,164.8z M287.6,153.5c1.1,0,1.9-0.4,2.5-1.1c0.6-0.8,0.9-1.8,0.9-3v-3.6
		c0-2.5-1.1-3.8-3.3-3.8c-2.2,0-3.3,1.3-3.3,3.8v3.9C284.6,152.2,285.6,153.5,287.6,153.5z"/>
	<path class="st0" d="M301.2,164.4h-2.1v-20.3c-0.9,0.7-2.3,1.1-4.2,1.2v-1.6c1.3-0.1,2.3-0.4,3.1-0.9s1.3-1.3,1.7-2.4h1.5V164.4z"
		/>
</g>
<g>
	<path class="st0" d="M52.7,142c-0.7,0-1.1,0.2-1.4,0.5c-0.3,0.3-0.4,0.9-0.4,1.6v3.2h3.4v1.8h-3.4v15.3h-2.1v-15.3h-2.3v-1.8h2.3
		V144c0-2.5,1.2-3.8,3.6-3.8c0.8,0,1.4,0.1,1.9,0.3v1.8C53.8,142.1,53.2,142,52.7,142z"/>
	<path class="st0" d="M56,159.3v-6.8c0-1.8,0.4-3.1,1.3-4.1c0.8-1,2.1-1.4,3.7-1.4c1.6,0,2.8,0.5,3.7,1.4c0.8,1,1.3,2.3,1.3,4.1v6.8
		c0,1.8-0.4,3.1-1.3,4.1s-2.1,1.4-3.7,1.4c-1.6,0-2.8-0.5-3.7-1.4C56.4,162.5,56,161.1,56,159.3z M63.8,159.5v-7.2
		c0-2.3-1-3.5-2.9-3.5c-1.9,0-2.9,1.2-2.9,3.5v7.2c0,2.3,1,3.5,2.9,3.5C62.8,163,63.8,161.8,63.8,159.5z"/>
	<path class="st0" d="M74.5,147.1c0.4,0,0.8,0.1,1.1,0.2v2.1c-0.3-0.1-0.7-0.2-1.1-0.2c-2.3,0-3.5,1.8-3.5,5.4v10H69v-17.1h1.7
		l0.1,2.8C71.4,148.1,72.6,147.1,74.5,147.1z"/>
</g>
</svg>
