<svg version="1.1" id="Capa_1" xmlns="http://www.w3.org/2000/svg" xmlns:xlink="http://www.w3.org/1999/xlink" x="0px" y="0px"
	 viewBox="0 0 394.183 394.183" style="enable-background:new 0 0 394.183 394.183;" xml:space="preserve" fill="#391113">
<g>
	<path d="M107.364,109.728h27.364c5.522,0,10-4.477,10-10c0-5.523-4.478-10-10-10h-17.364V55h34.728v17.364c0,5.523,4.478,10,10,10
		c5.523,0,10-4.477,10-10V45c0-5.523-4.477-10-10-10h-54.728c-5.522,0-10,4.477-10,10v54.728
		C97.364,105.25,101.841,109.728,107.364,109.728z"/>
	<path d="M162.091,159.727h-54.728c-5.522,0-10,4.477-10,10v54.728c0,5.523,4.478,10,10,10h27.364c5.522,0,10-4.477,10-10
		c0-5.523-4.478-10-10-10h-17.364v-34.728h34.728v17.364c0,5.523,4.478,10,10,10c5.523,0,10-4.477,10-10v-27.364
		C172.091,164.205,167.614,159.727,162.091,159.727z"/>
	<path d="M286.819,159.727h-54.727c-5.522,0-10,4.477-10,10v54.728c0,5.523,4.478,10,10,10h27.363c5.522,0,10-4.477,10-10
		c0-5.523-4.478-10-10-10h-17.363v-34.728h34.727v17.364c0,5.523,4.478,10,10,10c5.523,0,10-4.477,10-10v-27.364
		C296.819,164.205,292.341,159.727,286.819,159.727z"/>
	<path d="M162.091,284.455h-54.728c-5.522,0-10,4.477-10,10v54.728c0,5.523,4.478,10,10,10h27.364c5.522,0,10-4.477,10-10
		c0-5.523-4.478-10-10-10h-17.364v-34.728h34.728v17.364c0,5.523,4.478,10,10,10c5.523,0,10-4.477,10-10v-27.364
		C172.091,288.932,167.614,284.455,162.091,284.455z"/>
	<path d="M286.819,284.455h-54.727c-5.522,0-10,4.477-10,10v54.728c0,5.523,4.478,10,10,10h27.363c5.522,0,10-4.477,10-10
		c0-5.523-4.478-10-10-10h-17.363v-34.728h34.727v17.364c0,5.523,4.478,10,10,10c5.523,0,10-4.477,10-10v-27.364
		C296.819,288.932,292.341,284.455,286.819,284.455z"/>
	<path d="M321.819,70c-33.084,0-60-26.916-60-60c0-5.523-4.477-10-10-10H72.364c-5.522,0-10,4.477-10,10v374.183
		c0,5.523,4.477,10,10,10h249.455c5.523,0,10-4.477,10-10V80C331.819,74.477,327.341,70,321.819,70z M82.364,144.727h104.728
		v104.728H82.364V144.727z M207.091,144.727h104.727v104.728H207.091V144.727z M245.837,35h-13.746c-5.522,0-10,4.477-10,10v54.728
		c0,5.523,4.478,10,10,10h27.363c5.522,0,10-4.477,10-10c0-5.523-4.478-10-10-10h-17.363V55h13.635
		c12.639,18.503,32.822,31.463,56.092,34.378v35.349H207.091V20h35.35C243.089,25.17,244.248,30.182,245.837,35z M187.091,20
		v104.727H82.364V20H187.091z M82.364,269.455h104.728v104.728H82.364V269.455z M207.091,374.183V269.455h104.727v104.728H207.091z"
		/>
</g>
<!--<g>-->
<!--</g>-->
<!---->
</svg>
